<mxfile host="app.diagrams.net" modified="2024-04-13T17:53:33.766Z" agent="Mozilla/5.0 (Windows NT 10.0; Win64; x64) AppleWebKit/537.36 (KHTML, like Gecko) Chrome/123.0.0.0 Safari/537.36" etag="COs_Y9ccIeJSFGcxenxX" version="24.2.5" type="device">
  <diagram id="zoNxnzuM_VOvOxAYMEht" name="Página-1">
    <mxGraphModel dx="2074" dy="756" grid="1" gridSize="10" guides="1" tooltips="1" connect="1" arrows="1" fold="1" page="1" pageScale="1" pageWidth="827" pageHeight="1169" math="0" shadow="0">
      <root>
        <mxCell id="0" />
        <mxCell id="1" parent="0" />
        <mxCell id="1oSGOz-6xAhJUzyeJU_1-1" value="" style="rounded=0;whiteSpace=wrap;html=1;" parent="1" vertex="1">
          <mxGeometry x="40" y="40" width="240" height="440" as="geometry" />
        </mxCell>
        <mxCell id="1oSGOz-6xAhJUzyeJU_1-2" value="Tarefas Pendentes" style="text;html=1;align=center;verticalAlign=middle;whiteSpace=wrap;rounded=0;fontStyle=4" parent="1" vertex="1">
          <mxGeometry x="40" y="40" width="240" height="40" as="geometry" />
        </mxCell>
        <mxCell id="1oSGOz-6xAhJUzyeJU_1-4" value="" style="whiteSpace=wrap;html=1;aspect=fixed;" parent="1" vertex="1">
          <mxGeometry x="50" y="90" width="20" height="20" as="geometry" />
        </mxCell>
        <mxCell id="1oSGOz-6xAhJUzyeJU_1-21" value="" style="rounded=0;whiteSpace=wrap;html=1;" parent="1" vertex="1">
          <mxGeometry x="560" y="40" width="240" height="440" as="geometry" />
        </mxCell>
        <mxCell id="1oSGOz-6xAhJUzyeJU_1-22" value="Tarefas Pendentes" style="text;html=1;align=center;verticalAlign=middle;whiteSpace=wrap;rounded=0;fontStyle=4" parent="1" vertex="1">
          <mxGeometry x="560" y="40" width="240" height="40" as="geometry" />
        </mxCell>
        <mxCell id="1oSGOz-6xAhJUzyeJU_1-23" value="Tarefa 1" style="text;html=1;align=left;verticalAlign=middle;whiteSpace=wrap;rounded=0;" parent="1" vertex="1">
          <mxGeometry x="600" y="80" width="180" height="40" as="geometry" />
        </mxCell>
        <mxCell id="1oSGOz-6xAhJUzyeJU_1-24" value="" style="whiteSpace=wrap;html=1;aspect=fixed;" parent="1" vertex="1">
          <mxGeometry x="570" y="90" width="20" height="20" as="geometry" />
        </mxCell>
        <mxCell id="1oSGOz-6xAhJUzyeJU_1-26" value="" style="whiteSpace=wrap;html=1;aspect=fixed;" parent="1" vertex="1">
          <mxGeometry x="570" y="130" width="20" height="20" as="geometry" />
        </mxCell>
        <mxCell id="1oSGOz-6xAhJUzyeJU_1-30" value="Tarefas Realizadas" style="text;html=1;align=center;verticalAlign=middle;whiteSpace=wrap;rounded=0;fontStyle=4" parent="1" vertex="1">
          <mxGeometry x="560" y="160" width="240" height="40" as="geometry" />
        </mxCell>
        <mxCell id="fBBzk_Op71B5IGKMKYkR-1" value="Tarefas Realizadas" style="text;html=1;align=center;verticalAlign=middle;whiteSpace=wrap;rounded=0;fontStyle=4" parent="1" vertex="1">
          <mxGeometry x="40" y="120" width="240" height="40" as="geometry" />
        </mxCell>
        <mxCell id="fBBzk_Op71B5IGKMKYkR-2" value="" style="rounded=0;whiteSpace=wrap;html=1;" parent="1" vertex="1">
          <mxGeometry x="300" y="40" width="240" height="440" as="geometry" />
        </mxCell>
        <mxCell id="fBBzk_Op71B5IGKMKYkR-3" value="Tarefas Pendentes" style="text;html=1;align=center;verticalAlign=middle;whiteSpace=wrap;rounded=0;fontStyle=4" parent="1" vertex="1">
          <mxGeometry x="300" y="40" width="240" height="40" as="geometry" />
        </mxCell>
        <mxCell id="fBBzk_Op71B5IGKMKYkR-4" value="Tarefa 1" style="text;html=1;align=left;verticalAlign=middle;whiteSpace=wrap;rounded=0;" parent="1" vertex="1">
          <mxGeometry x="340" y="80" width="180" height="40" as="geometry" />
        </mxCell>
        <mxCell id="fBBzk_Op71B5IGKMKYkR-5" value="" style="whiteSpace=wrap;html=1;aspect=fixed;" parent="1" vertex="1">
          <mxGeometry x="310" y="90" width="20" height="20" as="geometry" />
        </mxCell>
        <mxCell id="fBBzk_Op71B5IGKMKYkR-6" value="Tarefa 2" style="text;html=1;align=left;verticalAlign=middle;whiteSpace=wrap;rounded=0;" parent="1" vertex="1">
          <mxGeometry x="340" y="120" width="180" height="40" as="geometry" />
        </mxCell>
        <mxCell id="fBBzk_Op71B5IGKMKYkR-7" value="" style="whiteSpace=wrap;html=1;aspect=fixed;" parent="1" vertex="1">
          <mxGeometry x="310" y="130" width="20" height="20" as="geometry" />
        </mxCell>
        <mxCell id="fBBzk_Op71B5IGKMKYkR-8" value="Tarefa 3" style="text;html=1;align=left;verticalAlign=middle;whiteSpace=wrap;rounded=0;" parent="1" vertex="1">
          <mxGeometry x="340" y="160" width="180" height="40" as="geometry" />
        </mxCell>
        <mxCell id="fBBzk_Op71B5IGKMKYkR-9" value="" style="whiteSpace=wrap;html=1;aspect=fixed;" parent="1" vertex="1">
          <mxGeometry x="310" y="170" width="20" height="20" as="geometry" />
        </mxCell>
        <mxCell id="fBBzk_Op71B5IGKMKYkR-10" value="" style="whiteSpace=wrap;html=1;aspect=fixed;" parent="1" vertex="1">
          <mxGeometry x="310" y="210" width="20" height="20" as="geometry" />
        </mxCell>
        <mxCell id="fBBzk_Op71B5IGKMKYkR-11" value="Tarefas Realizadas" style="text;html=1;align=center;verticalAlign=middle;whiteSpace=wrap;rounded=0;fontStyle=4" parent="1" vertex="1">
          <mxGeometry x="300" y="240" width="240" height="40" as="geometry" />
        </mxCell>
        <mxCell id="fBBzk_Op71B5IGKMKYkR-12" value="&lt;strike&gt;Tarefa X&lt;/strike&gt;" style="text;html=1;align=left;verticalAlign=middle;whiteSpace=wrap;rounded=0;" parent="1" vertex="1">
          <mxGeometry x="340" y="280" width="180" height="40" as="geometry" />
        </mxCell>
        <mxCell id="fBBzk_Op71B5IGKMKYkR-13" value="" style="whiteSpace=wrap;html=1;aspect=fixed;" parent="1" vertex="1">
          <mxGeometry x="310" y="290" width="20" height="20" as="geometry" />
        </mxCell>
        <mxCell id="fBBzk_Op71B5IGKMKYkR-14" value="&lt;strike&gt;Tarefa Y&lt;/strike&gt;" style="text;html=1;align=left;verticalAlign=middle;whiteSpace=wrap;rounded=0;" parent="1" vertex="1">
          <mxGeometry x="340" y="320" width="180" height="40" as="geometry" />
        </mxCell>
        <mxCell id="fBBzk_Op71B5IGKMKYkR-15" value="" style="whiteSpace=wrap;html=1;aspect=fixed;" parent="1" vertex="1">
          <mxGeometry x="310" y="330" width="20" height="20" as="geometry" />
        </mxCell>
        <mxCell id="fBBzk_Op71B5IGKMKYkR-16" value="&lt;strike&gt;Tarefa Z&lt;/strike&gt;" style="text;html=1;align=left;verticalAlign=middle;whiteSpace=wrap;rounded=0;" parent="1" vertex="1">
          <mxGeometry x="340" y="360" width="180" height="40" as="geometry" />
        </mxCell>
        <mxCell id="fBBzk_Op71B5IGKMKYkR-17" value="" style="whiteSpace=wrap;html=1;aspect=fixed;" parent="1" vertex="1">
          <mxGeometry x="310" y="370" width="20" height="20" as="geometry" />
        </mxCell>
        <mxCell id="fBBzk_Op71B5IGKMKYkR-18" value="✓" style="text;html=1;align=center;verticalAlign=middle;whiteSpace=wrap;rounded=0;" parent="1" vertex="1">
          <mxGeometry x="310" y="290" width="20" height="20" as="geometry" />
        </mxCell>
        <mxCell id="fBBzk_Op71B5IGKMKYkR-19" value="✓" style="text;html=1;align=center;verticalAlign=middle;whiteSpace=wrap;rounded=0;" parent="1" vertex="1">
          <mxGeometry x="310" y="330" width="20" height="20" as="geometry" />
        </mxCell>
        <mxCell id="fBBzk_Op71B5IGKMKYkR-20" value="✓" style="text;html=1;align=center;verticalAlign=middle;whiteSpace=wrap;rounded=0;" parent="1" vertex="1">
          <mxGeometry x="310" y="370" width="20" height="20" as="geometry" />
        </mxCell>
        <mxCell id="fBBzk_Op71B5IGKMKYkR-22" value="TL01" style="text;html=1;align=center;verticalAlign=bottom;whiteSpace=wrap;rounded=0;fontStyle=4" parent="1" vertex="1">
          <mxGeometry x="40" y="20" width="240" height="20" as="geometry" />
        </mxCell>
        <mxCell id="fBBzk_Op71B5IGKMKYkR-23" value="TL02" style="text;html=1;align=center;verticalAlign=bottom;whiteSpace=wrap;rounded=0;fontStyle=4" parent="1" vertex="1">
          <mxGeometry x="300" y="20" width="240" height="20" as="geometry" />
        </mxCell>
        <mxCell id="fBBzk_Op71B5IGKMKYkR-24" value="TL03" style="text;html=1;align=center;verticalAlign=bottom;whiteSpace=wrap;rounded=0;fontStyle=4" parent="1" vertex="1">
          <mxGeometry x="560" y="20" width="240" height="20" as="geometry" />
        </mxCell>
        <mxCell id="fBBzk_Op71B5IGKMKYkR-25" value="" style="rounded=0;whiteSpace=wrap;html=1;" parent="1" vertex="1">
          <mxGeometry x="40" y="520" width="240" height="440" as="geometry" />
        </mxCell>
        <mxCell id="fBBzk_Op71B5IGKMKYkR-26" value="Tarefas Pendentes" style="text;html=1;align=center;verticalAlign=middle;whiteSpace=wrap;rounded=0;fontStyle=4" parent="1" vertex="1">
          <mxGeometry x="40" y="520" width="240" height="40" as="geometry" />
        </mxCell>
        <mxCell id="fBBzk_Op71B5IGKMKYkR-27" value="Tarefa X" style="text;html=1;align=left;verticalAlign=middle;whiteSpace=wrap;rounded=0;" parent="1" vertex="1">
          <mxGeometry x="80" y="560" width="180" height="40" as="geometry" />
        </mxCell>
        <mxCell id="fBBzk_Op71B5IGKMKYkR-28" value="" style="whiteSpace=wrap;html=1;aspect=fixed;" parent="1" vertex="1">
          <mxGeometry x="50" y="570" width="20" height="20" as="geometry" />
        </mxCell>
        <mxCell id="fBBzk_Op71B5IGKMKYkR-29" value="" style="whiteSpace=wrap;html=1;aspect=fixed;" parent="1" vertex="1">
          <mxGeometry x="50" y="610" width="20" height="20" as="geometry" />
        </mxCell>
        <mxCell id="fBBzk_Op71B5IGKMKYkR-30" value="Tarefas Realizadas" style="text;html=1;align=center;verticalAlign=middle;whiteSpace=wrap;rounded=0;fontStyle=4" parent="1" vertex="1">
          <mxGeometry x="40" y="640" width="240" height="40" as="geometry" />
        </mxCell>
        <mxCell id="fBBzk_Op71B5IGKMKYkR-31" value="TL04" style="text;html=1;align=center;verticalAlign=bottom;whiteSpace=wrap;rounded=0;fontStyle=4" parent="1" vertex="1">
          <mxGeometry x="40" y="500" width="240" height="20" as="geometry" />
        </mxCell>
        <mxCell id="fBBzk_Op71B5IGKMKYkR-32" value="" style="rounded=0;whiteSpace=wrap;html=1;" parent="1" vertex="1">
          <mxGeometry x="300" y="520" width="240" height="440" as="geometry" />
        </mxCell>
        <mxCell id="fBBzk_Op71B5IGKMKYkR-33" value="Tarefas Pendentes" style="text;html=1;align=center;verticalAlign=middle;whiteSpace=wrap;rounded=0;fontStyle=4" parent="1" vertex="1">
          <mxGeometry x="300" y="520" width="240" height="40" as="geometry" />
        </mxCell>
        <mxCell id="fBBzk_Op71B5IGKMKYkR-34" value="&lt;strike&gt;Tarefa X&lt;/strike&gt;" style="text;html=1;align=left;verticalAlign=middle;whiteSpace=wrap;rounded=0;" parent="1" vertex="1">
          <mxGeometry x="340" y="640" width="180" height="40" as="geometry" />
        </mxCell>
        <mxCell id="fBBzk_Op71B5IGKMKYkR-35" value="" style="whiteSpace=wrap;html=1;aspect=fixed;" parent="1" vertex="1">
          <mxGeometry x="310" y="570" width="20" height="20" as="geometry" />
        </mxCell>
        <mxCell id="fBBzk_Op71B5IGKMKYkR-36" value="" style="whiteSpace=wrap;html=1;aspect=fixed;" parent="1" vertex="1">
          <mxGeometry x="310" y="650" width="20" height="20" as="geometry" />
        </mxCell>
        <mxCell id="fBBzk_Op71B5IGKMKYkR-37" value="Tarefas Realizadas" style="text;html=1;align=center;verticalAlign=middle;whiteSpace=wrap;rounded=0;fontStyle=4" parent="1" vertex="1">
          <mxGeometry x="300" y="600" width="240" height="40" as="geometry" />
        </mxCell>
        <mxCell id="fBBzk_Op71B5IGKMKYkR-38" value="TL05" style="text;html=1;align=center;verticalAlign=bottom;whiteSpace=wrap;rounded=0;fontStyle=4" parent="1" vertex="1">
          <mxGeometry x="300" y="500" width="240" height="20" as="geometry" />
        </mxCell>
        <mxCell id="fBBzk_Op71B5IGKMKYkR-39" value="✓" style="text;html=1;align=center;verticalAlign=middle;whiteSpace=wrap;rounded=0;" parent="1" vertex="1">
          <mxGeometry x="310" y="650" width="20" height="20" as="geometry" />
        </mxCell>
      </root>
    </mxGraphModel>
  </diagram>
</mxfile>
